<svg width="28" height="26" viewBox="0 0 28 26" fill="none" xmlns="http://www.w3.org/2000/svg">
<g filter="url(#filter0_d_5_252)">
<path d="M4.59375 0C4.26719 0 4 0.27 4 0.6C4 0.93 4.26719 1.2 4.59375 1.2H6.90937L7.41406 3.09C7.41406 3.12 7.41406 3.15 7.41406 3.15L9.31406 10.32C9.31406 10.32 9.31406 10.32 9.31406 10.35L9.9375 12.75C9.99687 13.02 10.2344 13.2 10.5016 13.2H20.0016C20.3281 13.2 20.5953 12.93 20.5953 12.6C20.5953 12.27 20.3281 12 20.0016 12H10.9766L10.65 10.74L21.2484 10.2C21.5156 10.2 21.7531 9.99 21.8125 9.72L23 3.12C23.0297 2.94 22.9703 2.76 22.8813 2.64C22.7625 2.49 22.5844 2.4 22.4062 2.4H8.45312L7.94844 0.45C7.85938 0.18 7.62188 0 7.35469 0H4.59375ZM11.7188 4.8C12.0453 4.8 12.3125 5.07 12.3125 5.4V7.8C12.3125 8.13 12.0453 8.4 11.7188 8.4C11.3922 8.4 11.125 8.13 11.125 7.8V5.4C11.125 5.07 11.3922 4.8 11.7188 4.8ZM15.2812 4.8C15.6078 4.8 15.875 5.07 15.875 5.4V7.8C15.875 8.13 15.6078 8.4 15.2812 8.4C14.9547 8.4 14.6875 8.13 14.6875 7.8V5.4C14.6875 5.07 14.9547 4.8 15.2812 4.8ZM18.8438 4.8C19.1703 4.8 19.4375 5.07 19.4375 5.4V7.8C19.4375 8.13 19.1703 8.4 18.8438 8.4C18.5172 8.4 18.25 8.13 18.25 7.8V5.4C18.25 5.07 18.5172 4.8 18.8438 4.8ZM11.7188 14.4C10.7391 14.4 9.9375 15.21 9.9375 16.2C9.9375 17.19 10.7391 18 11.7188 18C12.6984 18 13.5 17.19 13.5 16.2C13.5 15.21 12.6984 14.4 11.7188 14.4ZM18.8438 14.4C17.8641 14.4 17.0625 15.21 17.0625 16.2C17.0625 17.19 17.8641 18 18.8438 18C19.8234 18 20.625 17.19 20.625 16.2C20.625 15.21 19.8234 14.4 18.8438 14.4Z" fill="black"/>
<path d="M7.39245 1.071L7.29338 0.7H6.90937H4.59375C4.54825 0.7 4.5 0.658807 4.5 0.6C4.5 0.541193 4.54825 0.5 4.59375 0.5H7.35469C7.38637 0.5 7.44094 0.521611 7.46963 0.595543L7.96907 2.52528L8.06606 2.9H8.45312H22.4062C22.4183 2.9 22.4528 2.9088 22.4835 2.94351C22.4896 2.95325 22.4973 2.96873 22.5024 2.98778C22.5081 3.00893 22.5085 3.02574 22.5069 3.03681L21.3228 9.61823C21.3162 9.64241 21.3014 9.66578 21.2822 9.68231C21.262 9.69971 21.2488 9.7 21.2484 9.7H21.2357L21.223 9.70065L10.6246 10.2406L10.0121 10.2719L10.166 10.8654L10.4926 12.1254L10.5896 12.5H10.9766H20.0016C20.0471 12.5 20.0953 12.5412 20.0953 12.6C20.0953 12.6588 20.0471 12.7 20.0016 12.7H10.5016C10.4808 12.7 10.4632 12.6931 10.4506 12.6831C10.4388 12.6739 10.4299 12.6612 10.4258 12.6426L10.4238 12.6334L10.4214 12.6243L9.81406 10.2861V10.2549L9.79738 10.1919L7.91406 3.08488V3.02439L7.89714 2.961L7.39245 1.071ZM12.8125 5.4C12.8125 4.79881 12.3264 4.3 11.7188 4.3C11.1111 4.3 10.625 4.79881 10.625 5.4V7.8C10.625 8.40119 11.1111 8.9 11.7188 8.9C12.3264 8.9 12.8125 8.40119 12.8125 7.8V5.4ZM16.375 5.4C16.375 4.79881 15.8889 4.3 15.2812 4.3C14.6736 4.3 14.1875 4.79881 14.1875 5.4V7.8C14.1875 8.40119 14.6736 8.9 15.2812 8.9C15.8889 8.9 16.375 8.40119 16.375 7.8V5.4ZM19.9375 5.4C19.9375 4.79881 19.4514 4.3 18.8438 4.3C18.2361 4.3 17.75 4.79881 17.75 5.4V7.8C17.75 8.40119 18.2361 8.9 18.8438 8.9C19.4514 8.9 19.9375 8.40119 19.9375 7.8V5.4ZM10.4375 16.2C10.4375 15.4812 11.0201 14.9 11.7188 14.9C12.4174 14.9 13 15.4812 13 16.2C13 16.9188 12.4174 17.5 11.7188 17.5C11.0201 17.5 10.4375 16.9188 10.4375 16.2ZM17.5625 16.2C17.5625 15.4812 18.1451 14.9 18.8438 14.9C19.5424 14.9 20.125 15.4812 20.125 16.2C20.125 16.9188 19.5424 17.5 18.8438 17.5C18.1451 17.5 17.5625 16.9188 17.5625 16.2Z" stroke="black"/>
</g>
<defs>
<filter id="filter0_d_5_252" x="0" y="0" width="27.0078" height="26" filterUnits="userSpaceOnUse" color-interpolation-filters="sRGB">
<feFlood flood-opacity="0" result="BackgroundImageFix"/>
<feColorMatrix in="SourceAlpha" type="matrix" values="0 0 0 0 0 0 0 0 0 0 0 0 0 0 0 0 0 0 127 0" result="hardAlpha"/>
<feOffset dy="4"/>
<feGaussianBlur stdDeviation="2"/>
<feComposite in2="hardAlpha" operator="out"/>
<feColorMatrix type="matrix" values="0 0 0 0 0 0 0 0 0 0 0 0 0 0 0 0 0 0 0.25 0"/>
<feBlend mode="normal" in2="BackgroundImageFix" result="effect1_dropShadow_5_252"/>
<feBlend mode="normal" in="SourceGraphic" in2="effect1_dropShadow_5_252" result="shape"/>
</filter>
</defs>
</svg>
